<svg xml:space="preserve" style="enable-background:new 0 0 1559.06 505.11;" viewBox="0 0 1559.06 505.11" y="0px" x="0px" xmlns:xlink="http://www.w3.org/1999/xlink" xmlns="http://www.w3.org/2000/svg" id="Layer_1" version="1.1">
<style type="text/css">
	.st0{fill:#989695;}
	.st1{fill:#76ADDE;}
</style>
<g>
	<path d="M408.76,106.68c-13.8,13.95-21.03,71.79-21.03,71.79s57.2-7.33,70.99-21.28c13.8-13.95,13.8-36.57,0-50.51
		C444.93,92.73,422.56,92.73,408.76,106.68" class="st0"></path>
	<path d="M344.23,41.42c-13.8,13.95-21.03,71.79-21.03,71.79s57.2-7.33,70.99-21.28c13.79-13.95,13.79-36.57,0-50.52
		C380.39,27.47,358.02,27.47,344.23,41.42" class="st0"></path>
	<path d="M344.23,41.42c-13.8,13.95-21.03,71.79-21.03,71.79s57.2-7.33,70.99-21.28c13.79-13.95,13.79-36.57,0-50.52
		C380.39,27.47,358.02,27.47,344.23,41.42" class="st0"></path>
	<path d="M352.83,199.02c13.8-13.95,21.03-71.79,21.03-71.79s-57.2,7.33-70.99,21.27c-13.8,13.95-13.8,36.57,0,50.52
		C316.66,212.96,339.03,212.96,352.83,199.02" class="st0"></path>
	<path d="M464.2,263.09c-19.51,0-65.07,35.72-65.07,35.72s45.56,35.72,65.07,35.72s35.33-15.99,35.33-35.72
		C499.53,279.08,483.71,263.09,464.2,263.09" class="st0"></path>
	<path d="M464.2,170.8c-19.51,0-65.07,35.72-65.07,35.72s45.56,35.72,65.07,35.72s35.33-15.99,35.33-35.72
		C499.53,186.8,483.71,170.8,464.2,170.8" class="st0"></path>
	<path d="M464.2,170.8c-19.51,0-65.07,35.72-65.07,35.72s45.56,35.72,65.07,35.72s35.33-15.99,35.33-35.72
		C499.53,186.8,483.71,170.8,464.2,170.8" class="st0"></path>
	<path d="M360.08,288.39c19.51,0,65.08-35.72,65.08-35.72s-45.57-35.72-65.08-35.72s-35.33,15.99-35.33,35.72
		C324.75,272.39,340.57,288.39,360.08,288.39" class="st0"></path>
	<path d="M394.03,413.33c-13.79-13.95-70.99-21.27-70.99-21.27s7.24,57.83,21.03,71.78c13.79,13.95,36.16,13.95,49.95,0
		C407.82,449.89,407.82,427.28,394.03,413.33" class="st0"></path>
	<path d="M458.56,348.07c-13.8-13.95-70.99-21.27-70.99-21.27s7.24,57.83,21.03,71.78c13.79,13.95,36.16,13.95,49.95,0
		C472.36,384.64,472.36,362.02,458.56,348.07" class="st0"></path>
	<path d="M458.56,348.07c-13.8-13.95-70.99-21.27-70.99-21.27s7.24,57.83,21.03,71.78c13.79,13.95,36.16,13.95,49.95,0
		C472.36,384.64,472.36,362.02,458.56,348.07" class="st0"></path>
	<path d="M302.71,356.77c13.8,13.95,70.99,21.27,70.99,21.27s-7.24-57.83-21.03-71.78c-13.8-13.95-36.16-13.95-49.96,0
		C288.92,320.2,288.92,342.82,302.71,356.77" class="st0"></path>
	<path d="M239.35,469.39c0-19.73-35.33-65.8-35.33-65.8s-35.32,46.07-35.32,65.8c0,19.73,15.81,35.72,35.32,35.72
		C223.53,505.11,239.35,489.12,239.35,469.39" class="st0"></path>
	<path d="M330.62,469.39c0-19.73-35.33-65.8-35.33-65.8s-35.33,46.07-35.33,65.8c0,19.73,15.82,35.72,35.33,35.72
		S330.62,489.12,330.62,469.39" class="st0"></path>
	<path d="M330.62,469.39c0-19.73-35.33-65.8-35.33-65.8s-35.33,46.07-35.33,65.8c0,19.73,15.82,35.72,35.33,35.72
		S330.62,489.12,330.62,469.39" class="st0"></path>
	<path d="M214.33,364.1c0,19.73,35.33,65.8,35.33,65.8s35.33-46.07,35.33-65.8s-15.82-35.72-35.33-35.72
		C230.14,328.38,214.33,344.37,214.33,364.1" class="st0"></path>
	<path d="M90.77,398.43c13.8-13.95,21.03-71.79,21.03-71.79s-57.2,7.33-70.99,21.28c-13.8,13.95-13.8,36.57,0,50.51
		C54.6,412.38,76.97,412.38,90.77,398.43" class="st0"></path>
	<path d="M155.3,463.69c13.8-13.95,21.03-71.79,21.03-71.79s-57.2,7.33-70.99,21.28c-13.8,13.95-13.8,36.57,0,50.51
		C119.14,477.64,141.51,477.64,155.3,463.69" class="st0"></path>
	<path d="M155.3,463.69c13.8-13.95,21.03-71.79,21.03-71.79s-57.2,7.33-70.99,21.28c-13.8,13.95-13.8,36.57,0,50.51
		C119.14,477.64,141.51,477.64,155.3,463.69" class="st0"></path>
	<path d="M146.7,306.09c-13.8,13.95-21.03,71.79-21.03,71.79s57.2-7.33,70.99-21.28c13.8-13.95,13.8-36.57,0-50.51
		C182.87,292.14,160.5,292.14,146.7,306.09" class="st0"></path>
	<path d="M35.33,242.02c19.51,0,65.08-35.72,65.08-35.72s-45.57-35.72-65.08-35.72S0,186.57,0,206.3
		C0,226.03,15.82,242.02,35.33,242.02" class="st0"></path>
	<path d="M35.33,334.31c19.51,0,65.08-35.72,65.08-35.72s-45.57-35.72-65.08-35.72S0,278.86,0,298.58
		C0,318.31,15.82,334.31,35.33,334.31" class="st0"></path>
	<path d="M35.33,334.31c19.51,0,65.08-35.72,65.08-35.72s-45.57-35.72-65.08-35.72S0,278.86,0,298.58
		C0,318.31,15.82,334.31,35.33,334.31" class="st0"></path>
	<path d="M139.45,216.72c-19.51,0-65.08,35.72-65.08,35.72s45.57,35.72,65.08,35.72s35.33-15.99,35.33-35.72
		C174.78,232.72,158.96,216.72,139.45,216.72" class="st0"></path>
	<path d="M105.5,91.78c13.8,13.95,70.99,21.27,70.99,21.27s-7.24-57.83-21.03-71.78c-13.8-13.95-36.16-13.95-49.96,0
		S91.71,77.83,105.5,91.78" class="st0"></path>
	<path d="M40.97,157.04c13.8,13.95,70.99,21.27,70.99,21.27s-7.24-57.83-21.03-71.78c-13.8-13.95-36.16-13.95-49.96,0
		C27.17,120.47,27.17,143.09,40.97,157.04" class="st0"></path>
	<path d="M40.97,157.04c13.8,13.95,70.99,21.27,70.99,21.27s-7.24-57.83-21.03-71.78c-13.8-13.95-36.16-13.95-49.96,0
		C27.17,120.47,27.17,143.09,40.97,157.04" class="st0"></path>
	<path d="M196.82,148.34c-13.8-13.95-70.99-21.27-70.99-21.27s7.24,57.83,21.03,71.78c13.8,13.95,36.16,13.95,49.96,0
		C210.62,184.91,210.62,162.29,196.82,148.34" class="st0"></path>
	<path d="M260.18,35.72c0,19.73,35.33,65.8,35.33,65.8s35.33-46.07,35.33-65.8C330.84,15.99,315.02,0,295.51,0
		S260.18,15.99,260.18,35.72" class="st0"></path>
	<path d="M168.91,35.72c0,19.73,35.33,65.8,35.33,65.8s35.33-46.07,35.33-65.8C239.57,15.99,223.75,0,204.24,0
		S168.91,15.99,168.91,35.72" class="st0"></path>
	<path d="M168.91,35.72c0,19.73,35.33,65.8,35.33,65.8s35.33-46.07,35.33-65.8C239.57,15.99,223.75,0,204.24,0
		S168.91,15.99,168.91,35.72" class="st0"></path>
	<path d="M285.2,141.01c0-19.73-35.33-65.8-35.33-65.8s-35.32,46.07-35.32,65.8s15.81,35.72,35.32,35.72
		C269.39,176.73,285.2,160.74,285.2,141.01" class="st0"></path>
	<path d="M632.05,392.23c7.42-27.18,17.36-59.19,29.83-96.05h37.78v125.88H673.4V319.84
		c-6.22,26.91-16.44,60.98-30.63,102.22h-21.66c-14.98-45.47-25.14-79.21-30.43-101.22v101.22h-25.66V296.17h36.19
		C613.69,330.12,623.96,362.13,632.05,392.23" class="st1"></path>
	<path d="M794.71,296.18h21.87l46.32,125.88h-26.44c-2.26-6.63-5.05-15.38-8.35-26.25h-45.14
		c-1.86,5.97-4.71,14.72-8.56,26.25h-26.04L794.71,296.18z M805.85,330.18c-2.71,7.66-6.17,17.59-10.38,29.79
		c-2.42,7.02,2.78,14.36,10.2,14.36c7.4,0,12.61-7.29,10.23-14.3C811.88,348.2,808.53,338.26,805.85,330.18" class="st1"></path>
	<polygon points="992.72,422.05 967.07,422.05 967.07,296.18 992.72,296.18 992.72,346.69 1046.81,346.69 
		1046.81,296.18 1072.86,296.18 1072.86,422.05 1046.81,422.05 1046.81,367.57 992.72,367.57" class="st1"></polygon>
	<path d="M1167.91,296.18h21.88l46.32,125.88h-26.45c-2.26-6.63-5.05-15.38-8.35-26.25h-45.14
		c-1.86,5.97-4.7,14.72-8.56,26.25h-26.04L1167.91,296.18z M1179.05,330.18c-2.76,7.78-4.97,17.89-8.59,30.34
		c-2,6.89,3.17,13.8,10.35,13.8c7.63,0,12.85-7.73,10.03-14.81C1186.2,347.92,1181.7,338.14,1179.05,330.18" class="st1"></path>
	<path d="M1354.84,296.18c9.01,35.27,16.3,63.24,21.87,83.92l16.1-83.92h26.85l-31.22,125.88h-21.48l-25.85-87.89
		l-26.05,87.89h-21.67l-30.43-125.88h26.65l15.71,83.92c9.54-34.73,17.03-62.7,22.47-83.92H1354.84z" class="st1"></path>
	<path d="M1490.86,296.18h21.87l46.32,125.88h-26.44c-2.26-6.63-5.05-15.38-8.36-26.25h-45.13
		c-1.86,5.97-4.71,14.72-8.56,26.25h-26.04L1490.86,296.18z M1501.99,330.18c-2.72,7.66-6.18,17.59-10.38,29.79
		c-2.42,7.02,2.78,14.36,10.2,14.36c7.4,0,12.61-7.29,10.22-14.3C1508.02,348.2,1504.68,338.26,1501.99,330.18" class="st1"></path>
	<polygon points="560.67,222.16 560.67,97.5 587.85,83.06 587.85,222.16" class="st1"></polygon>
	<path d="M729.11,196.06v26.1h-26.52c-1.01,12.94-6.77,23.29-17.25,31.05c-8.62,6.32-18.69,9.49-30.2,9.49
		c-9.06,0-17.9-2.45-26.53-7.33v-23.5c7.77,4.44,15.52,6.68,23.3,6.68c6.03,0,11.38-1.65,16.07-4.96c4.67-3.3,7.22-7.26,7.65-11.85
		c-1.15-0.15-2.95-0.29-5.4-0.43c-2.45-0.29-4.31-0.5-5.61-0.65c-14.8-1.58-26.24-7.4-34.29-17.47
		c-6.76-8.47-10.14-18.76-10.14-30.84c0-15.81,4.32-28.32,12.94-37.53c7.62-8.05,17.68-12.07,30.19-12.07
		c12.79,0,22.79,4.09,29.98,12.29c6.17,7.05,9.27,16.25,9.27,27.6v33.43H729.11z M675.63,162.21c0-9.49-4.1-14.24-12.29-14.24
		c-10.93,0-16.39,7.84-16.39,23.51c0,13.95,6.33,21.71,18.98,23.29c2.01,0.43,5.25,0.8,9.71,1.08V162.21z" class="st1"></path>
	<rect height="26.09" width="37.96" class="st1" y="196.07" x="716.17"></rect>
	<rect height="26.09" width="37.96" class="st1" y="196.07" x="741.19"></rect>
	<rect height="26.09" width="37.96" class="st1" y="196.07" x="766.21"></rect>
	<rect height="26.09" width="37.96" class="st1" y="196.07" x="791.23"></rect>
	<rect height="26.09" width="37.96" class="st1" y="196.07" x="816.24"></rect>
	<rect height="26.09" width="37.96" class="st1" y="196.07" x="841.26"></rect>
	<rect height="26.09" width="37.96" class="st1" y="196.07" x="866.28"></rect>
	<rect height="26.09" width="37.96" class="st1" y="196.07" x="891.3"></rect>
	<path d="M941.76,156.16c3.59-12.07,10.03-21.56,19.3-28.47c9.27-6.9,20.02-10.35,32.25-10.35
		c16.38,0,29.83,5.39,40.32,16.18c9.78,10.06,14.66,23.07,14.66,39.03v9.48c0,13.09-4.09,23.3-12.29,30.63
		c-7.19,6.33-16.53,9.49-28.03,9.49H980.8c-4.9,0-9.49-0.72-13.8-2.15c-4.46,1.44-9.06,2.15-13.8,2.15h-36.88v-26.09h22
		c-2.45-5.32-3.67-11.14-3.67-17.47C934.64,169.68,937.01,162.2,941.76,156.16 M966.99,194.13c9.19-3.02,13.8-8.99,13.8-17.9
		c0-4.46-1.26-8.02-3.78-10.68c-2.51-2.66-5.86-3.99-10.02-3.99c-4.17,0-7.52,1.33-10.03,3.99c-2.51,2.66-3.77,6.22-3.77,10.68
		C953.19,185.14,957.79,191.1,966.99,194.13 M1021.34,180.32v-7.77c0-9.06-2.63-16.32-7.87-21.79c-5.25-5.46-12.18-8.19-20.81-8.19
		c-5.89,0-11,1.3-15.31,3.89c6.75,2.01,12.11,5.89,16.07,11.64c3.95,5.75,5.93,12.59,5.93,20.5c0,6.33-1.22,12.15-3.66,17.47h11.86
		c5.32,0,8.96-1.12,10.89-3.35C1020.37,190.49,1021.34,186.36,1021.34,180.32" class="st1"></path>
	<path d="M1173.17,222.16c-13.08,0-23.22-4.17-30.41-12.51c-6.19-7.19-9.27-16.46-9.27-27.82V97.29l27.18-14.23v97.48
		c0,5.61,1.14,9.6,3.45,11.97c2.3,2.37,6.18,3.56,11.65,3.56h19.41v26.09H1173.17z" class="st1"></path>
	<rect height="26.09" width="37.96" class="st1" y="196.07" x="1182.23"></rect>
	<rect height="26.09" width="37.96" class="st1" y="196.07" x="1207.24"></rect>
	<rect height="26.09" width="37.96" class="st1" y="196.07" x="1232.26"></rect>
	<rect height="26.09" width="37.96" class="st1" y="196.07" x="1257.28"></rect>
	<rect height="26.09" width="37.96" class="st1" y="196.07" x="1282.3"></rect>
	<rect height="26.09" width="37.96" class="st1" y="196.07" x="1307.31"></rect>
	<rect height="26.09" width="94.18" class="st1" y="196.07" x="1332.33"></rect>
	<rect height="26.09" width="37.95" class="st1" y="196.07" x="1413.58"></rect>
	<path d="M1473.1,162.63c0-12.94,4.03-23.08,12.09-30.41c7.04-6.32,16.09-9.48,27.17-9.48
		c14.23,0,25.3,5.25,33.21,15.74c6.76,8.77,10.14,20.06,10.14,33.86c0,15.96-4.25,28.54-12.73,37.74
		c-7.62,8.06-17.32,12.08-29.11,12.08c-11.51,0-20.92-2.52-28.26-7.54c-6.9,5.03-15.24,7.54-25.02,7.54h-22v-26.09H1458
		c5.47,0,9.34-1.19,11.65-3.56c2.3-2.38,3.45-6.37,3.45-11.97V162.63z M1500.27,183.98c0,8.05,4.24,12.08,12.72,12.08
		c10.64,0,15.96-8.2,15.96-24.59c0-15.67-5.54-23.51-16.6-23.51c-8.06,0-12.08,4.75-12.08,14.24V183.98z" class="st1"></path>
</g>
</svg>
